<?xml version="1.0" standalone="no"?>
<!DOCTYPE svg PUBLIC "-//W3C//DTD SVG 1.1//EN" "http://www.w3.org/Graphics/SVG/1.1/DTD/svg11.dtd">
<svg xmlns="http://www.w3.org/2000/svg" width="360" height="354" viewBox="0 0 360 354"><path fill="#0f1b1d" d="m168.145-.168 2.79-.01a2197 2197 0 0 1 5.873-.007c2.954-.002 5.908-.02 8.862-.04 9.973-.03 19.538.14 29.33 2.225l2.325.491C221.913 3.53 226.455 4.784 231 6l2.676.68c21.824 5.942 43.58 18.503 61.113 32.554a169 169 0 0 0 4.672 3.594C306.058 47.821 310.924 53.505 316 60a305 305 0 0 0 2.938 3.25c9.758 11.327 18.424 25.705 24.078 39.492.893 2.048 1.877 4 2.902 5.985 2.088 4.152 3.688 8.364 5.144 12.773l.779 2.332c2.133 6.622 3.493 13.247 4.616 20.106.376 2.965.376 2.965 1.543 5.062.265 3.412.444 6.817.605 10.234.132 4.014.132 4.014 1.395 7.766.096 1.998.13 4 .125 6l.008 3.25C360 179 360 179 359 181a83 83 0 0 0-.21 4.586c-.027.925-.054 1.85-.08 2.804l-.085 2.985c-.3 8.277-1.253 15.67-3.625 23.625q-.495 2.495-.937 5c-3.26 16.376-11.38 31.368-19.375 45.875l-1.237 2.25c-2.204 3.924-4.538 7.424-7.451 10.875a523 523 0 0 0-2.812 3.813c-2.636 3.535-5.468 6.828-8.403 10.117-1.854 2.15-3.57 4.37-5.285 6.632-4.852 6.297-9.84 11.088-16.5 15.438a351 351 0 0 0-3.375 3.188c-5.595 5.022-12.3 8.266-18.866 11.831-2.028 1.13-3.958 2.372-5.884 3.668-17.375 11.078-40.61 17.983-60.969 19.067-2.843.06-2.843.06-4.906 1.246-2.53.099-5.032.14-7.562.133l-2.264.003q-2.37 0-4.741-.006c-2.423-.005-4.846 0-7.269.007q-2.301 0-4.601-.004l-2.204.006c-5.13-.024-5.13-.024-7.359-1.139a400 400 0 0 0-6.373-.189c-11.221-.261-21-2.346-31.627-5.811l-3.227-.973c-19.193-5.975-37.744-15.567-53.41-28.156a121 121 0 0 0-4.14-3.158c-5.086-3.696-9.557-7.743-13.973-12.213l-1.957-1.934c-3.626-3.64-6.57-7.213-9.293-11.566-1.215-1.47-2.43-2.94-3.66-4.398-10.593-12.662-18.634-28.059-24.48-43.446-.814-2.152-.814-2.152-1.88-4.086-1.193-2.52-1.784-4.981-2.418-7.695-.925-3.875-1.946-7.653-3.187-11.437-1.415-4.546-1.881-8.947-2.164-13.688-.077-2.284-.077-2.284-1.211-4.25a73 73 0 0 1-.13-4.51l-.009-2.831.006-3.065-.003-3.139q0-3.288.006-6.577c.005-3.364 0-6.728-.007-10.093q0-3.189.004-6.379l-.006-3.065.01-2.831.002-2.499C0 153 0 153 1 151c.166-1.507.295-3.019.402-4.531.486-5.214 1.62-9.976 3.16-14.969l.79-2.596c2.61-8.288 6.08-16.094 9.758-23.953 1.23-2.695 2.307-5.444 3.39-8.201C22.364 87.378 27.373 78.687 34 71q1.944-2.431 3.875-4.875C46.6 55.226 56.019 46.608 67 38l1.922-1.523c20.84-16.12 44.884-27.562 70.672-32.934 2.402-.441 2.402-.441 4.406-1.543 3.34-.316 6.682-.511 10.031-.719 4.795-.454 9.116-1.443 14.114-1.449"/><path fill="#ffc93a" d="m205 14 2.332.342c26.478 4.047 52.683 15.173 73.757 31.738C287.677 51.417 293.903 57.112 300 63l2.074 1.918C307.144 69.715 311.06 75.262 315 81l2.121 3.012C331.43 105.156 341.375 129.709 345 155l.563 3.535c.769 6.33.581 12.724.562 19.09l.012 3.93-.004 3.797-.004 3.432C346 192 346 192 345 198l-66 1-1-27c-1.777-19.136-6.51-35.83-16.375-52.312l-1.352-2.283c-8.159-13.241-21.951-23.19-35.445-30.557-16.875-8.424-34.708-12.924-53.597-12.049-17.274 1.556-34.95 8.686-49.262 18.22-14.876 10.64-25.477 23.155-33.235 39.667C78.988 154.24 77.64 174.676 78 198c-3.718.86-7.155 1.126-10.968 1.13l-3.568.009-3.823-.006-3.94.003q-4.116.002-8.23-.006a3185 3185 0 0 0-10.57.004q-5.036.004-10.073-.001l-3.847.006-3.53-.01-3.125-.002L14 199l-1-1c-3.994-24.758-.846-51.353 7.688-74.75C28.815 101.916 39.409 82.745 55 66l1.477-1.593c20.246-21.606 45.542-36.365 73.572-45.518C154.667 11.476 179.63 10.103 205 14"/><path fill="#ffc93a" d="M208.965 93.664c15.082 7.013 29.357 15.98 39.765 29.102 8.731 12.442 14.113 27.217 16.27 42.234q.13 3.013.133 6.027l.004 3.4-.012 3.51.012 3.499c-.007 5.624-.121 11.026-1.137 16.564-4.185 1.023-8.06 1.088-12.36 1.022l-2.19-.03c-2.375-.032-4.75-.073-7.126-.113l-4.956-.072q-6.507-.094-13.015-.202-6.646-.104-13.292-.2-13.03-.196-26.061-.405v-27l6.25-.625c7.453-1.092 13.502-3.128 19.75-7.375 6.223-5.52 10.217-11.74 12.867-19.559 1.921-6.448 2.714-12.743 3.133-19.441-17.873.19-17.873.19-34.406 6.352-5.198 3.24-9.457 7.152-13.594 11.648l-2.062-2.125c-5.941-5.89-11.755-11.087-19.958-13.46-5.666-1.292-11.18-1.854-16.98-2.103l-2.598-.142A181 181 0 0 0 131 124l-1 1c-.423 9.201 1.354 18.487 5.355 26.824 3.554 5.612 7.998 10.077 13.762 13.395 6.41 3.287 11.864 4.056 19.047 4.5L171 170l1 1a62 62 0 0 1 .133 4.227l.004 2.628-.012 2.77.012 2.7-.004 2.652-.004 2.408c-.16 3.243-.656 6.404-1.129 9.615q-15.424.231-30.85.443-7.161.098-14.322.205-6.906.104-13.81.195-2.641.036-5.282.078-3.686.056-7.37.1l-2.228.04A139 139 0 0 1 92 199l-1-1c-.289-4.847-.246-9.708-.25-14.562l-.002-2.152C90.772 165.695 92.626 152.433 99 138l1.234-3.016c5.63-12.65 15.987-22.3 27.004-30.41 23.06-16.18 55.084-22.518 81.727-10.91"/><path fill="#ddd7c5" d="M169 211c1.88-.34 1.88-.34 4.133-.293l2.441.03 2.551.076 2.574.04c2.1.036 4.201.09 6.301.147 4.66 8.883 8.824 17.775 12.363 27.164 1.96 5.176 4.097 10.234 6.387 15.274 3.962 8.745 7.575 17.62 11.174 26.52 2.72 6.726 5.486 13.428 8.326 20.104a876 876 0 0 1 7.75 18.875l.919 2.28c1.377 3.517 2.081 5.954 2.081 9.783-11.684 4.216-23.76 6.13-36 8l-2.104.323c-25.077 3.51-53.127.18-76.896-8.323.528-6.729 2.371-12.357 4.813-18.625l1.19-3.116c4.742-12.331 9.68-24.585 14.62-36.838 1.563-3.884 3.11-7.775 4.656-11.667C161.73 221.908 161.73 221.908 169 211"/><path fill="#ffc93a" d="M205 212h137c-1.126 9.006-1.126 9.006-2.34 12.176l-.783 2.068-.815 2.069-.802 2.126c-1.195 3.111-2.404 5.778-4.26 8.561-2.105.37-2.105.37-4.758.36l-3.043.013-3.35-.032h-3.518c-3.853-.001-7.705-.025-11.558-.048q-3.998-.009-7.995-.013c-6.308-.01-12.615-.034-18.923-.064-7.18-.033-14.36-.05-21.54-.065-14.772-.031-29.543-.084-44.315-.151a1282 1282 0 0 1-4.5-10.125c-.43-.951-.859-1.903-1.3-2.883l-1.231-2.812-1.143-2.571C205 218 205 218 205 212M16 212h136c-.77 3.848-1.538 6.573-3.066 10.082l-1.221 2.822-1.275 2.909-1.288 2.966A2213 2213 0 0 1 142 238q-15.105.2-30.21.391-7.02.09-14.04.182c-24.585.326-49.163.502-73.75.427a1735 1735 0 0 1-2.387-5.625l-1.342-3.164C17.92 224.27 16 218.412 16 212M221 252h105c-.843 4.214-1.226 5.777-3.434 9.102l-1.466 2.234-1.538 2.289-1.525 2.313A1087 1087 0 0 1 314 274l-2 3c-2.692.286-5.153.378-7.846.34l-2.454.002c-2.684-.002-5.368-.026-8.052-.049q-2.787-.009-5.574-.013c-4.896-.011-9.791-.04-14.687-.074-4.994-.03-9.987-.044-14.98-.06A9337 9337 0 0 1 229 277a1465 1465 0 0 1-4-9.687l-1.156-2.764-1.094-2.686-1.016-2.46C221 257 221 257 221 252M31 251l105 1c-.736 3.682-1.413 6.296-2.848 9.645l-1.084 2.548-1.13 2.62-1.143 2.677q-1.392 3.257-2.795 6.51c-13.114 1.24-26.241 1.677-39.405 1.911-3.985.073-7.963.176-11.944.351-21.153.906-21.153.906-29.651-1.262-3.364-2.04-5.37-4.281-7.402-7.629a57 57 0 0 1-2.792-6.322c-.832-2.114-1.856-3.944-3.03-5.885C31 254 31 254 31 251M243.827 289.886h3.7l4.012.016 4.094.005q5.391.006 10.782.024 5.5.014 11 .02 10.792.016 21.585.049c-1 3-1 3-3.188 4.98L293 297.187c-3.504 2.78-6.844 5.585-10.063 8.688-4.317 3.887-9.068 6.9-14 9.937l-2.29 1.42c-4.75 2.857-9.33 5.164-14.647 6.768-2.042-.034-2.042-.034-4-1-1.556-2.728-1.556-2.728-3.016-6.336l-.79-1.925a413 413 0 0 1-1.623-4.04 527 527 0 0 0-2.5-6.176C236 294.486 236 294.486 236 291c2.703-1.351 4.8-1.12 7.827-1.114M60 290h61c0 3.774-1.178 6.196-2.625 9.688a571 571 0 0 0-6.75 17.25l-.795 2.133q-.917 2.464-1.83 4.929c-13.532-2.059-26.544-12.384-37.07-20.62A339 339 0 0 1 66 298.5l-1.836-1.528c-1.45-1.256-2.816-2.607-4.164-3.972z"/><path fill="#0f1b1d" d="m306.848 158.566 1.979-.015q2.064-.01 4.127.003c2.106.008 4.208-.02 6.314-.052q2.008-.003 4.017.002l3.684-.006L330 159c1.931 1.836 1.931 1.836 3 4-.187 3.125-.187 3.125-1 6-2 2-2 2-3.77 2.61-4.834.845-9.773.66-14.668.702l-3.431.088c-8.306.064-8.306.064-12.381-2.228C296 168 296 168 295.438 164.938c.185-.97.37-1.94.562-2.938 3.305-3.406 6.242-3.397 10.848-3.434M177 24c2.625-.062 2.625-.062 5 1 1.626 1.713 1.626 1.713 3 4 .372 2.654.372 2.654.363 5.648l-.002 3.297-.048 3.43.01 3.406C185.254 55.084 185.254 55.084 183 60l-1 1c-3.375.313-3.375.313-7 0-1.697-1.623-1.697-1.623-3-4-.659-4.621-.51-9.274-.5-13.937l-.086-3.866c-.019-9.057-.019-9.057 1.642-12.187 1.311-1.385 1.311-1.385 3.944-3.01M46 107c2.81-.263 5.22-.282 7.898.686 2.068.966 4.086 1.995 6.102 3.064l2.078 1.055C74.302 118.103 74.302 118.103 77 122c.438 2.938.438 2.938 0 6-1.687 2.438-1.687 2.438-4 4-5.648-.617-10.173-3.55-15.062-6.25l-2.721-1.45c-3.755-2.06-6.823-3.902-9.85-6.96L44 115c.182-3.087.622-5.244 2-8M30 159c4.112-.746 8.223-.616 12.397-.576 2.031.013 4.058-.02 6.09-.059l3.884.006 3.56-.002L59 159c2.383 2.375 2.383 2.375 4 5 .5 2.625.5 2.625 0 5-1.662 1.624-1.662 1.624-4 3-2.761.388-2.761.388-5.902.398l-3.448.012-3.587-.035-3.577.035-6.595-.022C32.557 171.94 30.67 171.026 28 169c-1-2.937-1-2.937-1-6 1.094-2.156 1.094-2.156 3-4M230 39c3-.562 3-.562 6 0 2.438 1.563 2.438 1.563 4 4-.347 5.586-2.047 10.1-4.312 15.125l-.897 2.09C232.996 64.27 231.135 67.785 228 71c-3.562.563-3.562.563-7 0l-2.062-1.437C218 67 218 67 218.438 63.125c2.236-8.362 5.57-17.77 11.562-24.125M122.875 38.375 126 39c4.266 4.361 6.605 8.884 8.875 14.5l.969 2.223c1.459 3.546 2.188 5.806 1.926 9.691C137 68 137 68 135.812 69.875 134 71 134 71 131.126 71.688L128 71c-5.366-5.415-8.597-14.882-11-22-.245-3.38-.324-5.315 1.125-8.375C120 39 120 39 122.875 38.375M310.027 107.246 313 108c.938 3.125.938 3.125 1 7-4.118 5.982-12.717 9.788-19 13-3.483 1.34-5.514 2.037-9.25 1.75C283 129 283 129 281 127c-.309-2.453-.309-2.453 0-5 3.837-4.943 11.156-7.928 16.563-10.937l2.18-1.255c3.602-1.936 6.156-3.144 10.284-2.562M275 66c3.063.688 3.063.688 6 2l2 3c.055 2.703.055 2.703-1 6-2.056 2.819-4.43 5.267-6.875 7.75l-1.934 2.035c-2.642 2.753-5 5.088-8.191 7.215-3.443-.184-6.048-.405-9-2.25L255 90c.18-2.34.18-2.34 1-5 1.82-2.176 1.82-2.176 4.125-4.312a133 133 0 0 0 10.367-11.06C272 68 272 68 275 66M77 67c2.752-.018 4.442.108 7 1 3.064 2.144 5.66 4.685 8.313 7.313l2.166 2.052C100.468 83.14 100.468 83.14 102 87c-.25 2.625-.25 2.625-1 5l-2 2c-3.227.556-4.913.78-8 0-3.206-2.222-5.539-4.995-8-8l-2.316-2.734C78.55 80.58 76.646 78.01 75 75c-.412-2.931-.048-4.164 1-7zM172 299h13q.04 5.469.063 10.938l.025 3.154.01 2.998.016 2.777L185 321l-1 1c-1.831.099-3.666.13-5.5.125l-3.031.008L173 322l-1-1a83 83 0 0 1-.098-4.91l.01-2.998.025-3.154.014-3.167q.02-3.885.049-7.771"/><path fill="#ddd7c5" d="M143 137c6.239.302 11.107 1.378 16.633 4.348 4.041 2.82 6.911 6.403 9.367 10.652.717 1.983 1.396 3.98 2 6-11.873-.817-11.873-.817-16.535-3.41-4.44-3.756-7.945-8.344-10.465-13.59a62 62 0 0 1-1-4M213 138c-.957 4.66-3.225 8.187-6 12-3.76 3.76-7.94 5.594-13 7-2.676.474-5.288.758-8 1 2.12-6.238 6.27-10.533 11-15 5.046-3.394 9.96-5 16-5"/><path fill="#0f1b1d" d="M173 264q2.718-.04 5.438-.062l3.058-.036L184 264l1 1c.1 2.843.139 5.657.125 8.5l.012 2.418A182 182 0 0 1 185 282l-1 1c-1.831.099-3.666.13-5.5.125l-3.031.008L173 283l-1-1c-.1-2.657-.139-5.281-.125-7.937l-.012-2.249c.01-5.56.01-5.56 1.137-7.814M173 233q2.469-.04 4.938-.062l2.777-.036L183 233l1 1c.1 2.677.139 5.323.125 8l.012 2.273A162 162 0 0 1 184 250l-1 1c-1.664.098-3.333.13-5 .125l-2.75.008L173 251l-1-1c-.331-5.717-.213-11.39 1-17"/><path fill="#ffc93a" d="M16 212h43v1l-3.624.076q-6.651.142-13.301.296-2.88.066-5.759.125-4.137.088-8.273.187l-2.604.05-2.427.06-2.133.048c-2.106.103-2.106.103-4.879 1.158z"/><path fill="#ddd7c5" d="M16 212h13v1l-2.082.184-2.73.254-2.708.246c-2.607.25-2.607.25-5.48 1.316z"/><path fill="#ffc93a" d="M60 290a100 100 0 0 1 5 0l-2 5-4-4z"/><path fill="#ddd7c5" d="M219 155v3c-2 2.188-2 2.188-4 4l-2-1c3.75-4.875 3.75-4.875 6-6"/><path fill="#ffc93a" d="M31 251h7l-5 4-2-1zM236 291l4 1-4 2z"/></svg>